# xmcd
# 
# Track frame offsets:
#     150
#     18773
#     37809
#     58277
#     77749
#     91890
#     108402
#     123909
#     134755
#     148985
#     160938
#     186896
#     202571
#     214765
#     226893
#     242764
#     257013
#     287385
#     297799
# 
# Disc length: 4140
# 
# Revision: 1
# Processed by: cddbd v1.5.2PL0 Copyright (c) Steve Scherf et al.
# Submitted via: BonkEnc v1.0.8
# 
DISCID=08102a13
DTITLE=Paul Bley - Early Trios
DYEAR=1954
DGENRE=Jazz
TTITLE0=Like Someone In Love
TTITLE1=Opus 1
TTITLE2=Walkin'
TTITLE3=Spontaneous Combustion
TTITLE4=Split Kick
TTITLE5=I Can't Get Started
TTITLE6=Santa Claus Is Coming To Town
TTITLE7=Drum One
TTITLE8=Autumn Breeze
TTITLE9=That Old Feeling
TTITLE10=There Will Never Be Another You
TTITLE11=May Old Flame
TTITLE12=Topsy
TTITLE13=My Heart Stood Still
TTITLE14=Time On My Hands
TTITLE15=This Can't Be Love
TTITLE16=My One And Only
TTITLE17=I Want To Be Happy
TTITLE18=52nd Street Theme
EXTD=YEAR: 2005
EXTT0=
EXTT1=
EXTT2=
EXTT3=
EXTT4=
EXTT5=
EXTT6=
EXTT7=
EXTT8=
EXTT9=
EXTT10=
EXTT11=
EXTT12=
EXTT13=
EXTT14=
EXTT15=
EXTT16=
EXTT17=
EXTT18=
PLAYORDER=
